<?xml version="1.0" encoding="utf-8"?>
<!-- Generator: Adobe Illustrator 15.1.0, SVG Export Plug-In . SVG Version: 6.00 Build 0)  -->
<!DOCTYPE svg PUBLIC "-//W3C//DTD SVG 1.1//EN" "http://www.w3.org/Graphics/SVG/1.1/DTD/svg11.dtd">
<svg version="1.1" id="Слой_1" xmlns="http://www.w3.org/2000/svg" xmlns:xlink="http://www.w3.org/1999/xlink" x="0px" y="0px"
	 width="71.099px" height="141.732px" viewBox="0 0 71.099 141.732" enable-background="new 0 0 71.099 141.732"
	 xml:space="preserve">
<path fill="#FFFFFF" d="M35.579,0.746c-19.478,0-35.325,15.845-35.325,35.322v68.267c0,22.266,9.921,35.14,27.23,35.321h5.534
	c20.243,0,21.27-29.365,21.27-35.252V40.367c0-10.38-8.241-18.825-18.37-18.825c-10.13,0-18.372,8.444-18.372,18.825v64.411
	c0,2.028,1.65,3.68,3.679,3.68s3.679-1.651,3.679-3.68V40.367c0-6.323,4.941-11.467,11.015-11.467
	c6.071,0,11.011,5.144,11.011,11.467v64.037c0,1.139-0.159,27.895-13.911,27.895h-5.465c-13.231-0.138-19.941-9.547-19.941-27.964
	V36.068c0-15.419,12.546-27.964,27.967-27.964c15.42,0,27.964,12.544,27.964,27.964v57.417c0,2.028,1.65,3.679,3.68,3.679
	c2.028,0,3.679-1.65,3.679-3.679V36.068C70.901,16.591,55.056,0.746,35.579,0.746z"/>
</svg>
