<?xml version="1.0" encoding="utf-8"?>
<!-- Generator: Adobe Illustrator 15.1.0, SVG Export Plug-In . SVG Version: 6.00 Build 0)  -->
<!DOCTYPE svg PUBLIC "-//W3C//DTD SVG 1.1//EN" "http://www.w3.org/Graphics/SVG/1.1/DTD/svg11.dtd">
<svg version="1.1" id="Слой_1" xmlns="http://www.w3.org/2000/svg" xmlns:xlink="http://www.w3.org/1999/xlink" x="0px" y="0px"
	 width="141.732px" height="100.632px" viewBox="0 0 141.732 100.632" enable-background="new 0 0 141.732 100.632"
	 xml:space="preserve">
<path fill="#A21F16" d="M124.775,0.429H16.936C7.6,0.429,0,8.029,0,17.37v66.743c0,9.347,7.6,16.947,16.936,16.947h107.839
	c9.357,0,16.957-7.601,16.957-16.947V17.37C141.732,8.029,134.132,0.429,124.775,0.429z M69.183,65.716L18.121,11.268h105.51
	L69.183,65.716z M40.477,50.972L10.838,83.34V19.365L40.477,50.972z M47.928,58.9l21,22.397l23.689-23.688l29.871,32.611H19.243
	L47.928,58.9z M100.302,49.929l30.591-30.58v63.98L100.302,49.929z"/>
</svg>
