<?xml version="1.0" encoding="utf-8"?>
<!-- Generator: Adobe Illustrator 15.1.0, SVG Export Plug-In . SVG Version: 6.00 Build 0)  -->
<!DOCTYPE svg PUBLIC "-//W3C//DTD SVG 1.1//EN" "http://www.w3.org/Graphics/SVG/1.1/DTD/svg11.dtd">
<svg version="1.1" id="Слой_1" xmlns="http://www.w3.org/2000/svg" xmlns:xlink="http://www.w3.org/1999/xlink" x="0px" y="0px"
	 width="141.732px" height="140.474px" viewBox="0 0 141.732 140.474" enable-background="new 0 0 141.732 140.474"
	 xml:space="preserve">
<g>
	<polygon fill="#840800" points="141.343,30.27 111.393,0.001 72.311,38.571 33.23,0.001 27.931,5.373 66.979,43.904 106.06,5.333 
		129.819,29.411 91.056,67.673 129.819,105.925 106.042,130.012 66.979,91.452 27.917,130.012 4.138,105.925 42.896,67.673 
		42.838,67.615 -0.389,110.361 29.412,140.474 39.396,130.823 39.44,130.871 43.586,126.782 73.348,98.018 112.405,136.579 
		121.758,126.628 141.343,106.784 102.579,68.532 	"/>
	<linearGradient id="SVGID_1_" gradientUnits="userSpaceOnUse" x1="57.0186" y1="2.2744" x2="76.0002" y2="126.909">
		<stop  offset="0" style="stop-color:#ED0F1D"/>
		<stop  offset="1" style="stop-color:#B30019"/>
	</linearGradient>
	<polygon fill="url(#SVGID_1_)" points="129.819,29.411 106.06,5.333 66.979,43.904 27.931,5.373 27.897,5.333 4.133,29.411 
		42.838,67.615 42.896,67.673 4.138,105.925 27.917,130.012 66.979,91.452 106.042,130.012 129.819,105.925 91.056,67.673 	"/>
</g>
</svg>
