<?xml version="1.0" encoding="utf-8"?>
<!-- Generator: Adobe Illustrator 15.1.0, SVG Export Plug-In . SVG Version: 6.00 Build 0)  -->
<!DOCTYPE svg PUBLIC "-//W3C//DTD SVG 1.1//EN" "http://www.w3.org/Graphics/SVG/1.1/DTD/svg11.dtd">
<svg version="1.1" id="Слой_1" xmlns="http://www.w3.org/2000/svg" xmlns:xlink="http://www.w3.org/1999/xlink" x="0px" y="0px"
	 width="136.171px" height="141.732px" viewBox="0 0 136.171 141.732" enable-background="new 0 0 136.171 141.732"
	 xml:space="preserve">
<g>
	<path opacity="0.17" d="M71.207,140.438c-1.724,1.725-4.521,1.725-6.242,0L1.29,76.762c-1.722-1.721-1.722-4.512,0.001-6.236
		L64.968,6.85c1.722-1.721,4.513-1.721,6.236,0l63.674,63.676c1.724,1.725,1.724,4.516,0,6.236L71.207,140.438z"/>
	<path fill="#840800" d="M71.207,134.877c-1.724,1.725-4.521,1.725-6.242,0L1.29,71.204c-1.722-1.723-1.722-4.516,0.001-6.238
		L64.968,1.29c1.722-1.721,4.513-1.721,6.236,0l63.674,63.676c1.724,1.723,1.724,4.516,0,6.238L71.207,134.877z"/>
	<linearGradient id="SVGID_1_" gradientUnits="userSpaceOnUse" x1="81.0903" y1="31.2935" x2="54.6774" y2="106.0142">
		<stop  offset="0" style="stop-color:#D6001D"/>
		<stop  offset="1" style="stop-color:#9E0015"/>
	</linearGradient>
	<path fill="url(#SVGID_1_)" d="M71.036,131.225c-1.629,1.629-4.273,1.629-5.9,0L4.941,71.034c-1.626-1.629-1.626-4.27,0.002-5.897
		L65.139,4.942c1.627-1.627,4.266-1.627,5.895,0l60.192,60.194c1.629,1.628,1.629,4.269,0,5.897L71.036,131.225z"/>
	<linearGradient id="SVGID_2_" gradientUnits="userSpaceOnUse" x1="74.2705" y1="71.4863" x2="108.3086" y2="91.9123">
		<stop  offset="0" style="stop-color:#ED0F1D"/>
		<stop  offset="1" style="stop-color:#B30019"/>
	</linearGradient>
	<path fill="url(#SVGID_2_)" d="M131.226,65.136L71.033,4.942c-0.859-0.858-1.997-1.234-3.122-1.187v128.657
		c1.127,0.049,2.266-0.326,3.125-1.188l60.189-60.191C132.854,69.405,132.854,66.764,131.226,65.136z"/>
	<path fill="#EDB4B1" d="M4.943,68.264L65.139,8.07c1.627-1.627,4.266-1.627,5.895,0l60.192,60.194
		c0.408,0.408,0.714,0.881,0.918,1.385c0.608-1.506,0.303-3.294-0.918-4.513L71.033,4.942c-1.629-1.627-4.268-1.627-5.895,0
		L4.943,65.136c-1.221,1.219-1.525,3.009-0.917,4.514C4.229,69.145,4.534,68.672,4.943,68.264z"/>
</g>
</svg>
