<?xml version="1.0" encoding="utf-8"?>
<!-- Generator: Adobe Illustrator 15.1.0, SVG Export Plug-In . SVG Version: 6.00 Build 0)  -->
<!DOCTYPE svg PUBLIC "-//W3C//DTD SVG 1.1//EN" "http://www.w3.org/Graphics/SVG/1.1/DTD/svg11.dtd">
<svg version="1.1" id="Слой_1" xmlns="http://www.w3.org/2000/svg" xmlns:xlink="http://www.w3.org/1999/xlink" x="0px" y="0px"
	 width="136.171px" height="141.732px" viewBox="0 0 136.171 141.732" enable-background="new 0 0 136.171 141.732"
	 xml:space="preserve">
<g>
	<path opacity="0.17" d="M71.208,140.438c-1.725,1.725-4.521,1.725-6.242,0L1.29,76.762c-1.721-1.721-1.721-4.512,0.002-6.236
		L64.968,6.85c1.723-1.721,4.514-1.721,6.236,0l63.674,63.676c1.725,1.725,1.725,4.516,0,6.236L71.208,140.438z"/>
	<path fill="#840800" d="M71.208,134.877c-1.725,1.725-4.521,1.725-6.242,0L1.29,71.204c-1.721-1.723-1.721-4.516,0.002-6.238
		L64.968,1.29c1.723-1.721,4.514-1.721,6.236,0l63.674,63.676c1.725,1.723,1.725,4.516,0,6.238L71.208,134.877z"/>
	<linearGradient id="SVGID_1_" gradientUnits="userSpaceOnUse" x1="81.0908" y1="31.2935" x2="54.6778" y2="106.0145">
		<stop  offset="0" style="stop-color:#D6001D"/>
		<stop  offset="1" style="stop-color:#9E0015"/>
	</linearGradient>
	<path fill="url(#SVGID_1_)" d="M71.036,131.225c-1.629,1.629-4.273,1.629-5.9,0L4.942,71.034c-1.627-1.629-1.627-4.27,0.002-5.897
		L65.14,4.942c1.627-1.627,4.266-1.627,5.895,0l60.191,60.194c1.629,1.628,1.629,4.269,0,5.897L71.036,131.225z"/>
	<linearGradient id="SVGID_2_" gradientUnits="userSpaceOnUse" x1="74.2705" y1="71.4863" x2="108.3086" y2="91.9123">
		<stop  offset="0" style="stop-color:#ED0F1D"/>
		<stop  offset="1" style="stop-color:#B30019"/>
	</linearGradient>
	<path fill="url(#SVGID_2_)" d="M131.226,65.136L71.034,4.942c-0.859-0.858-1.998-1.234-3.123-1.187v128.657
		c1.127,0.049,2.266-0.326,3.125-1.188l60.189-60.191C132.854,69.405,132.854,66.764,131.226,65.136z"/>
	<path fill="#EDB4B1" d="M4.944,68.264L65.14,8.07c1.627-1.627,4.266-1.627,5.895,0l60.191,60.194
		c0.408,0.408,0.715,0.881,0.918,1.385c0.609-1.506,0.303-3.294-0.918-4.513L71.034,4.942c-1.629-1.627-4.268-1.627-5.895,0
		L4.944,65.136c-1.221,1.219-1.525,3.009-0.918,4.514C4.229,69.145,4.534,68.672,4.944,68.264z"/>
</g>
<path fill="#840800" d="M74.814,94.398c0.191,0.581,0.385,1.113,0.581,1.614c0.642-0.187,1.298-0.336,1.969-0.44
	c-0.207-0.51-0.422-1.087-0.646-1.764c1.652-0.661,2.857-1.593,3.395-2.664c2.5-5-6.299-15.591-9.834-14
	c-3.333,1.5-2.781,4.119-4.167,5c-1.833,1.166-2.834,0.5-2.834,0.5c-8.333-6.833-12.833-21.5-13.833-25.834s2.667-5,6.167-5.333
	s2-8.333,1.667-13.167s-12.667-4-16.667,4.833s0.667,25.667,10.333,40.333C57.812,93.894,68.373,95.9,74.814,94.398z"/>
<path fill="#FFFFFF" d="M81.822,102.912c2.244,0,3.727-2.856,4.623-4.586c0.018-0.032,0.033-0.064,0.051-0.096
	c0.07,0.158,0.143,0.322,0.209,0.476c0.311,0.706,0.695,1.584,1.217,2.453c0.5,0.834,1.113,1.246,1.799,1.186
	c1.268-0.085,1.902-1.563,2.637-3.272c0.213-0.493,0.43-0.998,0.639-1.398c0.438,0.646,1.051,1.989,1.533,3.389
	c0.569-0.479,1.121-0.925,1.654-1.325c-1.001-2.735-2.033-4.206-3.076-4.362c-0.568-0.083-1.111,0.168-1.48,0.696
	c-0.404,0.575-0.744,1.37-1.105,2.211c-0.238,0.553-0.6,1.395-0.887,1.844c-0.455-0.759-0.797-1.536-1.098-2.224
	c-0.563-1.284-0.971-2.213-1.936-2.274c-0.576-0.033-1.092,0.3-1.514,1.002c-0.111,0.186-0.252,0.455-0.418,0.775
	c-0.51,0.982-1.844,3.577-2.906,3.505c-0.336-0.029-1.527-0.503-3.045-5.102c1.652-0.661,2.857-1.593,3.395-2.664
	c2.5-5-6.299-15.591-9.834-14c-3.334,1.5-2.781,4.119-4.167,5c-1.833,1.166-2.834,0.5-2.834,0.5
	c-8.333-6.833-12.833-21.5-13.833-25.834s2.667-5,6.167-5.333s2.842-8.467,1.667-13.167c-1.333-5.333-12.667-4-16.667,4.833
	s0.667,25.667,10.333,40.333C59.812,95.894,70.373,97.9,76.814,96.398c1.4,4.257,2.922,6.343,4.775,6.504
	C81.67,102.909,81.746,102.912,81.822,102.912z"/>
</svg>
