<?xml version="1.0" encoding="utf-8"?>
<!-- Generator: Adobe Illustrator 15.1.0, SVG Export Plug-In . SVG Version: 6.00 Build 0)  -->
<!DOCTYPE svg PUBLIC "-//W3C//DTD SVG 1.1//EN" "http://www.w3.org/Graphics/SVG/1.1/DTD/svg11.dtd">
<svg version="1.1" id="Слой_1" xmlns="http://www.w3.org/2000/svg" xmlns:xlink="http://www.w3.org/1999/xlink" x="0px" y="0px"
	 width="141.732px" height="124.589px" viewBox="0 0 141.732 124.589" enable-background="new 0 0 141.732 124.589"
	 xml:space="preserve">
<path fill="#A3A5A6" d="M139.744,108.07L89.21,67.411c-0.878-0.715-1.977-0.97-3.143-1.018l-1.527-14.153
	c0.679-3.032,1.07-6.171,1.07-9.41c0-23.64-19.166-42.805-42.806-42.805S0,19.191,0,42.831s19.166,42.806,42.805,42.806
	c6.573,0,12.777-1.527,18.343-4.176l14.009-1.512c0.295,1.121,0.774,2.153,1.659,2.862l50.525,40.669
	c2.833,2.28,7.65,1.011,10.756-2.854l1.158-1.432C142.355,115.344,142.577,110.364,139.744,108.07z M7.554,42.831
	c0-19.438,15.813-35.251,35.251-35.251s35.251,15.813,35.251,35.251S62.244,78.082,42.805,78.082S7.554,62.27,7.554,42.831z"/>
</svg>
