<?xml version="1.0" encoding="utf-8"?>
<!-- Generator: Adobe Illustrator 15.1.0, SVG Export Plug-In . SVG Version: 6.00 Build 0)  -->
<!DOCTYPE svg PUBLIC "-//W3C//DTD SVG 1.1//EN" "http://www.w3.org/Graphics/SVG/1.1/DTD/svg11.dtd">
<svg version="1.1" id="Слой_1" xmlns="http://www.w3.org/2000/svg" xmlns:xlink="http://www.w3.org/1999/xlink" x="0px" y="0px"
	 width="141.732px" height="141.732px" viewBox="0 0 141.732 141.732" enable-background="new 0 0 141.732 141.732"
	 xml:space="preserve">
<g>
	<polyline fill="#EC463B" points="101.856,2.79 53.422,51.228 4.988,99.662 6.608,138.887 2.065,138.679 0,99.008 48.193,50.818 
		99.012,0 	"/>
	<polyline fill="#7C0700" points="138.942,39.872 90.507,88.306 42.073,136.74 1.885,135.124 2.093,139.67 42.72,141.732 
		90.91,93.542 141.728,42.716 	"/>
	<path fill="#C1251B" d="M90.177,88.636l48.793-48.793l-18.532-18.528l-16.14-16.14l-2.385-2.381L53.128,51.58L4.694,100.014
		l1.62,35.426l0.007,0.007l35.422,1.623L90.177,88.636z M97.662,22.647l6.5,6.501l-2.169,2.169l-82.56,82.567l-4.12-4.123
		l-2.381-2.378L97.662,22.647z M111.962,36.948l6.501,6.5l-2.17,2.169l-82.56,82.56l-4.123-4.116l-2.384-2.385L111.962,36.948z"/>
</g>
</svg>
