<?xml version="1.0" encoding="utf-8"?>
<!-- Generator: Adobe Illustrator 15.1.0, SVG Export Plug-In . SVG Version: 6.00 Build 0)  -->
<!DOCTYPE svg PUBLIC "-//W3C//DTD SVG 1.1//EN" "http://www.w3.org/Graphics/SVG/1.1/DTD/svg11.dtd">
<svg version="1.1" id="Слой_1" xmlns="http://www.w3.org/2000/svg" xmlns:xlink="http://www.w3.org/1999/xlink" x="0px" y="0px"
	 width="136.171px" height="141.732px" viewBox="0 0 136.171 141.732" enable-background="new 0 0 136.171 141.732"
	 xml:space="preserve">
<g>
	<g>
		<path opacity="0.17" d="M71.208,140.438c-1.725,1.725-4.521,1.725-6.242,0L1.29,76.762c-1.721-1.721-1.721-4.512,0.002-6.236
			L64.968,6.85c1.723-1.721,4.514-1.721,6.236,0l63.674,63.676c1.725,1.725,1.725,4.516,0,6.236L71.208,140.438z"/>
		<path fill="#840800" d="M71.208,134.877c-1.725,1.725-4.521,1.725-6.242,0L1.29,71.204c-1.721-1.723-1.721-4.516,0.002-6.238
			L64.968,1.29c1.723-1.721,4.514-1.721,6.236,0l63.674,63.676c1.725,1.723,1.725,4.516,0,6.238L71.208,134.877z"/>
		<linearGradient id="SVGID_1_" gradientUnits="userSpaceOnUse" x1="81.0908" y1="31.2935" x2="54.6778" y2="106.0145">
			<stop  offset="0" style="stop-color:#D6001D"/>
			<stop  offset="1" style="stop-color:#9E0015"/>
		</linearGradient>
		<path fill="url(#SVGID_1_)" d="M71.036,131.225c-1.629,1.629-4.273,1.629-5.9,0L4.942,71.034c-1.627-1.629-1.627-4.27,0.002-5.897
			L65.14,4.942c1.627-1.627,4.266-1.627,5.895,0l60.191,60.194c1.629,1.628,1.629,4.269,0,5.897L71.036,131.225z"/>
		<linearGradient id="SVGID_2_" gradientUnits="userSpaceOnUse" x1="74.2705" y1="71.4863" x2="108.3086" y2="91.9123">
			<stop  offset="0" style="stop-color:#ED0F1D"/>
			<stop  offset="1" style="stop-color:#B30019"/>
		</linearGradient>
		<path fill="url(#SVGID_2_)" d="M131.226,65.136L71.034,4.942c-0.859-0.858-1.998-1.234-3.123-1.187v128.657
			c1.127,0.049,2.266-0.326,3.125-1.188l60.189-60.191C132.854,69.405,132.854,66.764,131.226,65.136z"/>
		<path fill="#EDB4B1" d="M4.944,68.264L65.14,8.07c1.627-1.627,4.266-1.627,5.895,0l60.191,60.194
			c0.408,0.408,0.715,0.881,0.918,1.385c0.609-1.506,0.303-3.294-0.918-4.513L71.034,4.942c-1.629-1.627-4.268-1.627-5.895,0
			L4.944,65.136c-1.221,1.219-1.525,3.009-0.918,4.514C4.229,69.145,4.534,68.672,4.944,68.264z"/>
	</g>
	<g>
		<path fill="none" d="M71.252,84.311v-4.576c1.257-0.891,2.083-2.35,2.083-4.008c0-0.841-0.23-1.621-0.604-2.313
			c-0.692-0.373-1.472-0.604-2.313-0.604c-2.716,0-4.917,2.201-4.917,4.916c0,1.658,0.826,3.116,2.083,4.007v4.577
			c0,0.253,0.044,0.493,0.106,0.727c0.233,0.063,0.475,0.106,0.728,0.106C69.983,87.144,71.252,85.875,71.252,84.311z"/>
		<path fill="none" d="M77.006,55.646c0-2.859-0.938-5.466-2.472-7.462c-1.565-1.181-3.437-1.873-5.448-1.873
			c-5.47,0-9.92,5.085-9.92,11.335v7.665h17.84V55.646z"/>
		<path fill="#6F140F" d="M70.419,89.144c1.564,0,2.833-1.269,2.833-2.833v-4.576c1.257-0.891,2.083-2.35,2.083-4.008
			c0-1.874-1.061-3.483-2.604-4.313c0.373,0.691,0.604,1.472,0.604,2.313c0,1.658-0.826,3.117-2.083,4.008v4.576
			c0,1.564-1.269,2.833-2.833,2.833c-0.253,0-0.494-0.044-0.728-0.106C68.014,88.248,69.106,89.144,70.419,89.144z"/>
		<path fill="#6F140F" d="M77.006,55.646v9.665h-17.84v2h19.84v-9.665c0-3.951-1.781-7.433-4.472-9.462
			C76.067,50.18,77.006,52.787,77.006,55.646z"/>
		<path fill="#6F140F" d="M86.795,68.104c-0.636-1.075-1.615-1.92-2.789-2.386v1.597C85.024,67.331,85.975,67.62,86.795,68.104z"/>
		<path fill="#6F140F" d="M48.586,72.98c0-3.101,2.49-5.617,5.58-5.665v-9.669c0-9.007,6.693-16.335,14.92-16.335
			c3.382,0,6.494,1.252,8.999,3.337c-2.729-3.27-6.644-5.337-10.999-5.337c-8.227,0-14.92,7.328-14.92,16.335v9.669
			c-3.09,0.048-5.58,2.563-5.58,5.665v18.662c0,2.079,1.123,3.892,2.791,4.878c-0.5-0.845-0.791-1.826-0.791-2.878V72.98z"/>
		<path fill="#FFFFFF" d="M86.795,68.104c-0.82-0.484-1.771-0.773-2.789-0.789v-1.597v-8.072c0-5.305-2.332-10.012-5.921-12.998
			c-2.505-2.084-5.617-3.337-8.999-3.337c-8.227,0-14.92,7.328-14.92,16.335v9.669c-3.09,0.048-5.58,2.563-5.58,5.665v18.662
			c0,1.052,0.291,2.033,0.791,2.878c0.986,1.669,2.799,2.791,4.879,2.791h29.661c3.131,0,5.669-2.538,5.669-5.669V72.98
			C89.586,70.901,88.464,69.09,86.795,68.104z M79.006,57.646v9.665h-19.84v-2v-7.665c0-6.25,4.45-11.335,9.92-11.335
			c2.012,0,3.883,0.692,5.448,1.873C77.225,50.213,79.006,53.695,79.006,57.646z M67.585,86.311v-4.577
			c-1.257-0.891-2.083-2.349-2.083-4.007c0-2.715,2.201-4.916,4.917-4.916c0.841,0,1.62,0.23,2.313,0.604
			c1.543,0.829,2.604,2.438,2.604,4.313c0,1.658-0.826,3.117-2.083,4.008v4.576c0,1.564-1.269,2.833-2.833,2.833
			c-1.313,0-2.405-0.896-2.728-2.106C67.629,86.804,67.585,86.564,67.585,86.311z"/>
	</g>
</g>
</svg>
