<?xml version="1.0" encoding="utf-8"?>
<!-- Generator: Adobe Illustrator 15.1.0, SVG Export Plug-In . SVG Version: 6.00 Build 0)  -->
<!DOCTYPE svg PUBLIC "-//W3C//DTD SVG 1.1//EN" "http://www.w3.org/Graphics/SVG/1.1/DTD/svg11.dtd">
<svg version="1.1" id="Слой_1" xmlns="http://www.w3.org/2000/svg" xmlns:xlink="http://www.w3.org/1999/xlink" x="0px" y="0px"
	 width="141.732px" height="47.463px" viewBox="0 0 141.732 47.463" enable-background="new 0 0 141.732 47.463"
	 xml:space="preserve">
<g>
	<path fill="#DDDDDD" d="M136.737,1.178h-0.104c-0.274,0-0.5,0-0.693-0.024H6.536c-2.968,0-5.383,2.415-5.383,5.383v34.39
		c0,2.969,2.415,5.383,5.383,5.383h92.998c5.364,0,8.487-3.246,10.609-6.074l0.029-0.039l0.034-0.038l28.338-31.607l0.021-0.022
		l0.021-0.022c0.679-0.735,1.991-2.546,1.991-3.483C140.58,2.901,138.855,1.178,136.737,1.178z"/>
	<path fill="#A3A3A3" d="M136.737,0.025c-0.03,0-0.065,0-0.104,0c-0.229,0-0.565-0.002-0.59-0.025H6.536C2.926,0,0,2.927,0,6.536
		v34.391c0,3.608,2.926,6.535,6.536,6.535h92.998c6.341,0,9.8-4.229,11.531-6.535L139.404,9.32c0.042-0.042,2.328-2.566,2.328-4.299
		C141.732,2.261,139.496,0.025,136.737,0.025z M138.566,8.526l-0.021,0.022l-28.338,31.607l-0.034,0.037l-0.029,0.039
		c-2.122,2.83-5.245,6.076-10.609,6.076H6.536c-2.968,0-5.383-2.416-5.383-5.384V6.536c0-2.968,2.415-5.383,5.383-5.383h129.403
		c0.193,0.024,0.419,0.024,0.693,0.024h0.104c2.118,0,3.843,1.724,3.843,3.843c0,0.938-1.313,2.748-1.991,3.483L138.566,8.526z"/>
</g>
<g opacity="0.08">
	<path d="M103.761,44.409H8.649c-2.707,0-4.902-2.192-4.902-4.901V9.536c0-2.706,2.195-4.901,4.902-4.901h127.777
		c2.71,0,1.822,1.587-0.384,4.205C136.043,8.84,106.47,44.409,103.761,44.409z"/>
</g>
<g>
	
		<linearGradient id="SVGID_1_" gradientUnits="userSpaceOnUse" x1="70.3362" y1="23.0654" x2="70.3362" y2="-3.8048" gradientTransform="matrix(1 0 0 -1 0.04 46.5273)">
		<stop  offset="0" style="stop-color:#FFFFFF"/>
		<stop  offset="0.9939" style="stop-color:#C7C7C7"/>
	</linearGradient>
	<path fill="url(#SVGID_1_)" d="M134.697,5.916c0.368-0.397,0.813-0.875,1.155-1.281H8.649C6.582,4.635,4.9,6.316,4.9,8.384v29.971
		c0,2.067,1.682,3.75,3.749,3.75h92.517c2.067,0,3.749-1.683,3.749-3.75v-0.455l0.311-0.332l27.94-29.949
		C133.67,7.021,134.215,6.434,134.697,5.916z"/>
	<path fill="#A3A3A3" d="M136.427,3.481H8.649c-2.707,0-4.902,2.195-4.902,4.902v29.972c0,2.709,2.195,4.901,4.902,4.901h92.517
		c2.709,0,4.902-2.192,4.902-4.901l27.96-29.972C136.235,5.766,139.136,3.481,136.427,3.481z M104.915,37.899v0.455
		c0,2.066-1.682,3.748-3.749,3.748H8.649c-2.067,0-3.749-1.682-3.749-3.748V8.384c0-2.067,1.682-3.749,3.749-3.749h127.203
		c-0.344,0.406-0.787,0.884-1.155,1.281c-0.481,0.518-1.026,1.104-1.531,1.702l-27.94,29.949L104.915,37.899z"/>
</g>
<g>
	
		<linearGradient id="SVGID_2_" gradientUnits="userSpaceOnUse" x1="116.6824" y1="43.5918" x2="81.5191" y2="13.808" gradientTransform="matrix(1 0 0 -1 0.04 46.5273)">
		<stop  offset="0" style="stop-color:#00E639"/>
		<stop  offset="1" style="stop-color:#269943"/>
	</linearGradient>
	<polygon fill="url(#SVGID_2_)" points="104.337,42.082 79.549,42.082 79.549,5.765 136.427,5.765 	"/>
	<rect x="79.549" y="5.765" fill="#08602F" width="0.771" height="36.317"/>
	<g>
		<g>
			<path fill="#08602F" d="M101.35,21.28h-8.915c-0.723,0-1.308,0.586-1.308,1.308v0.844c0,0.722,0.585,1.307,1.308,1.307h8.915
				c0.722,0,1.308-0.585,1.308-1.307v-0.844C102.658,21.866,102.072,21.28,101.35,21.28z"/>
			<path fill="#08602F" d="M101.35,25.894h-6.993c-0.723,0-1.308,0.584-1.308,1.307v0.845c0,0.722,0.585,1.308,1.308,1.308h6.993
				c0.722,0,1.308-0.586,1.308-1.308V27.2C102.658,26.478,102.072,25.894,101.35,25.894z"/>
			<circle fill="#08602F" cx="96.556" cy="31.753" r="1.249"/>
			<circle fill="#08602F" cx="101.167" cy="31.753" r="1.249"/>
			<path fill="#08602F" d="M102.417,14.319v0.047l-0.049-0.047l-2.206,2.207h-9.84c-0.722,0-1.307,0.585-1.307,1.306v0.845
				c0,0.723,0.585,1.308,1.307,1.308h11.028c0.722,0,1.308-0.585,1.308-1.308v-0.845c0-0.16-0.039-0.309-0.092-0.45l0.805-0.807
				h4.715v-2.256H102.417z"/>
		</g>
		<g>
			<path fill="#FFFFFF" d="M100.197,20.128h-8.914c-0.722,0-1.308,0.585-1.308,1.307v0.845c0,0.722,0.586,1.307,1.308,1.307h8.914
				c0.722,0,1.308-0.585,1.308-1.307v-0.845C101.504,20.713,100.918,20.128,100.197,20.128z"/>
			<path fill="#FFFFFF" d="M100.197,24.739h-6.992c-0.722,0-1.308,0.584-1.308,1.307v0.846c0,0.721,0.586,1.307,1.308,1.307h6.992
				c0.722,0,1.308-0.586,1.308-1.307v-0.846C101.504,25.323,100.918,24.739,100.197,24.739z"/>
			<circle fill="#FFFFFF" cx="95.403" cy="30.602" r="1.249"/>
			<circle fill="#FFFFFF" cx="100.015" cy="30.602" r="1.249"/>
			<path fill="#FFFFFF" d="M101.263,13.166v0.048l-0.049-0.048l-2.207,2.207h-9.839c-0.722,0-1.308,0.585-1.308,1.306v0.845
				c0,0.723,0.586,1.309,1.308,1.309h11.027c0.722,0,1.308-0.586,1.308-1.309v-0.845c0-0.159-0.038-0.309-0.091-0.45l0.805-0.806
				h4.715v-2.257H101.263z"/>
		</g>
	</g>
	<rect x="78.397" y="5.765" fill="#FFFFFF" width="0.77" height="36.317"/>
</g>
<path fill="none" stroke="#A3A3A3" stroke-miterlimit="10" d="M13.643,5.381"/>
</svg>
