<?xml version="1.0" encoding="utf-8"?>
<!-- Generator: Adobe Illustrator 15.1.0, SVG Export Plug-In . SVG Version: 6.00 Build 0)  -->
<!DOCTYPE svg PUBLIC "-//W3C//DTD SVG 1.1//EN" "http://www.w3.org/Graphics/SVG/1.1/DTD/svg11.dtd">
<svg version="1.1" id="Layer_1" xmlns="http://www.w3.org/2000/svg" xmlns:xlink="http://www.w3.org/1999/xlink" x="0px" y="0px"
	 width="141.732px" height="141.732px" viewBox="0 0 141.732 141.732" enable-background="new 0 0 141.732 141.732"
	 xml:space="preserve">
<g>
	<path fill-rule="evenodd" clip-rule="evenodd" fill="#AF294D" d="M76.569,83.482c-3.666,4.313-9.21,7.061-15.415,7.061
		c-11.038,0-19.985-8.695-19.985-19.423c0-10.727,8.947-19.423,19.985-19.423c5.943,0,11.264,2.535,14.925,6.537L88.737,45.96
		c-6.813-6.029-16.088-9.744-26.316-9.744c-20.91,0-37.86,15.5-37.86,34.623c0,19.121,16.95,34.623,37.86,34.623
		c10.199,0,19.449-3.694,26.256-9.692L76.569,83.482z"/>
	<path fill-rule="evenodd" clip-rule="evenodd" fill="#AF294D" d="M73.206,74.029c0.017-0.082,0.051-0.157,0.051-0.245v-1.162
		l0.096-9.796V61.55H72.05H56.884h-0.9c-0.719,0-1.303,0.572-1.303,1.276l-0.096,10.958c0,0.087,0.033,0.163,0.05,0.245h-3.522
		v0.281v2.721v2.44h3.284v-2.44h19.423v2.346h2.909v-2.346V74.31v-0.281H73.206z M70.35,75.061H57.776V63.802H70.35V75.061z"/>
	<path fill-rule="evenodd" clip-rule="evenodd" fill="#808384" d="M119.272,61.55h-15.744c-0.705,0-1.277,0.572-1.277,1.276v12.647
		c0,0.705,0.572,1.276,1.277,1.276h15.744c0.704,0,1.276-0.572,1.276-1.276V62.826C120.548,62.122,119.976,61.55,119.272,61.55z
		 M117.639,74.686h-12.573l-0.094-11.072h12.573L117.639,74.686z"/>
	<polygon fill-rule="evenodd" clip-rule="evenodd" fill="#AF294D" points="96.048,61.737 96.004,61.689 95.951,61.737 
		95.683,61.737 95.214,61.737 83.485,73.023 83.485,61.55 80.295,61.55 80.295,77.125 83.485,77.125 95.12,65.772 95.214,77.219 
		98.029,77.219 98.029,61.737 	"/>
	<polygon fill="#808384" points="126.285,77.125 132.558,64.337 138.832,77.125 141.855,77.125 141.86,77.122 134.041,61.456 
		131.057,61.456 123.256,77.122 123.263,77.125 	"/>
	<path fill="#808384" d="M85.177,102.747c0,0-0.075,7.145,8.875,12.681c8.95,5.535,11.695,12.319,11.695,12.319l0.917,2.074
		l-4.92,3.89l16.645,5.618l-2.482-16.615l-4.181,3.182c0,0-8.1-9.442-13.886-12.318C92.049,110.702,87.935,108.219,85.177,102.747z"
		/>
	<path fill="#808384" d="M36.258,39.821c0,0-0.147-7.525-9.748-13.072c-9.6-5.546-12.704-12.605-12.704-12.605l-1.031-2.155
		l5.059-4.252L0.128,2.348l3.14,17.418l4.301-3.482c0,0,8.83,9.688,15.014,12.532C28.769,31.661,33.179,34.146,36.258,39.821z"/>
</g>
</svg>
